# xmcd CD database file
#
# Track frame offsets:
#	150
#	16630
#	41570
#	61012
#	82995
#	98297
#	123655
#	153800
#	183442
#
# Disc length: 2711 seconds
#
# Revision: 0
# Processed by: cddbd v1.5.1PL2 Copyright (c) Steve Scherf et al.
# Submitted via: CDex 1.51
#
DISCID=570a9509
DTITLE=Rebecca Parris - Live at Chan's 
DYEAR=1998
DGENRE=Jazz
TTITLE0=Ain't Misbehavin'
TTITLE1=More Than You Know
TTITLE2=Blue Monk
TTITLE3=Georgia on My Mind
TTITLE4=I'm Beginning to See The Light
TTITLE5=Embraceable You
TTITLE6=How Insensitive
TTITLE7=My Melancholy Baby
TTITLE8=Angel Eyes
EXTD=YEAR: 1998
EXTT0=
EXTT1=
EXTT2=
EXTT3=
EXTT4=
EXTT5=
EXTT6=
EXTT7=
EXTT8=
PLAYORDER=
